# Blender v2.78 (sub 0) OBJ File: ''
# www.blender.org
mtllib bar_back.mtl
o SketchUp.001_ID16
v 0.538831 2.333466 2.161079
v 0.538831 2.282474 -1.728288
v 0.538831 1.784350 2.161079
v 0.538831 2.333466 -2.249487
v 0.538831 2.282474 -2.204538
v 0.538831 1.847499 -2.204538
v 0.538831 1.847499 -1.728288
v 0.538831 1.784350 -2.249487
vt 1.1817 1.2760
vt -0.9450 1.2481
vt 1.1817 0.9757
vt -1.2300 1.2760
vt -1.2055 1.2481
vt -1.2055 1.0102
vt -0.9450 1.0102
vt -1.2300 0.9757
vn -1.0000 0.0000 0.0000
usemtl Wood_Cherry_Original
s off
f 1/1/1 2/2/1 3/3/1
f 2/2/1 1/1/1 4/4/1
f 2/2/1 4/4/1 5/5/1
f 5/5/1 4/4/1 6/6/1
f 3/3/1 7/7/1 8/8/1
f 7/7/1 3/3/1 2/2/1
f 8/8/1 7/7/1 6/6/1
f 8/8/1 6/6/1 4/4/1
o SketchUp_ID3
v 0.538831 2.282474 -2.204538
v 0.538831 1.847499 -1.728288
v 0.538831 2.282474 -1.728288
v 0.538831 1.847499 -2.204538
vt -1.2055 1.2481
vt -0.9450 1.0102
vt -0.9450 1.2481
vt -1.2055 1.0102
vn -1.0000 0.0000 0.0000
usemtl Wood_Cherry_Original
s off
f 9/9/2 10/10/2 11/11/2
f 10/10/2 9/9/2 12/12/2
