# Blender v2.78 (sub 0) OBJ File: ''
# www.blender.org
mtllib f_door_left.mtl
o SketchUp_ID3
v -0.056090 0.609600 0.000000
v -0.055204 0.609600 0.000000
v -0.056090 0.609600 -0.100581
v -0.005290 0.010634 0.000000
v -0.005290 0.000000 -0.100581
v -0.005290 0.609600 -0.100581
v -0.005290 0.609600 0.000000
v -0.056090 0.609600 -0.100581
v -0.005290 0.000000 -0.100581
v -0.056090 0.000000 -0.100581
v -0.005290 0.609600 -0.100581
v -0.005290 0.000000 0.000000
v -0.005290 0.609600 0.000000
v -0.005290 0.609600 -0.100581
vt 2.8906 2.6314
vt 2.8910 2.6314
vt 2.8906 2.6786
vt 2.6314 0.0050
vt 2.6786 0.2857
vt 2.6314 0.2857
vt -2.8906 0.2857
vt -2.9144 0.0000
vt -2.8906 0.0000
vt -2.9144 0.2857
vt 2.6786 0.0000
vt 2.6314 0.0000
vt 2.9144 2.6786
vt 2.9144 2.6314
vn 0.0000 1.0000 0.0000
vn 1.0000 -0.0000 0.0000
vn 0.0000 0.0000 -1.0000
usemtl Stone_Coursed_Rough
s 1
f 1/1/1 2/2/1 3/3/1
f 4/4/2 6/5/2 7/6/2
f 8/7/3 9/8/3 10/9/3
f 9/8/3 8/7/3 11/10/3
f 5/11/2 4/4/2 12/12/2
f 2/2/1 14/13/1 3/3/1
f 4/4/2 5/11/2 6/5/2
f 2/2/1 13/14/1 14/13/1
o SketchUp.007_ID77
v -0.056090 0.000000 -0.176781
v -0.157690 0.000000 -0.100581
v -0.157690 0.000000 -0.176781
v -0.055204 0.000000 0.000000
v -0.057904 0.000000 0.000000
v -0.056090 0.000000 -0.100581
v -0.005290 0.000000 -0.100581
v -0.005290 0.000000 0.000000
v -0.059236 0.000000 0.000000
v -0.157690 0.000000 0.000000
vt 0.0000 0.0000
vt 1.0000 0.0000
vt 1.0000 1.0000
vt 0.0000 0.0000
vt 1.0000 0.0000
vt 1.0000 1.0000
vt 1.0000 1.0000
vt 0.0000 1.0000
vt 0.0000 0.0000
vt 1.0000 1.0000
vt 0.0000 1.0000
vt 0.0000 0.0000
vt 0.0000 1.0000
vt 1.0000 0.0000
vt 1.0000 0.0000
vn 0.0000 -1.0000 -0.0000
usemtl material
s 1
f 15/15/4 16/16/4 17/17/4
f 18/18/4 19/19/4 20/20/4
f 18/18/4 21/21/4 22/22/4
f 16/23/4 23/24/4 24/25/4
f 20/26/4 23/24/4 15/27/4
f 18/18/4 20/28/4 21/21/4
f 16/23/4 15/29/4 23/24/4
f 20/26/4 19/19/4 23/24/4
o SketchUp.001_ID18
v -0.069346 2.057400 -0.200000
v -0.056090 2.057400 -0.100581
v -0.056090 2.057400 -0.200000
v -0.157690 2.057400 -0.200000
v -0.157690 2.057400 -0.100581
vt 0.0000 0.0000
vt 1.0000 0.0000
vt 1.0000 1.0000
vt 1.0000 0.0000
vt 0.0000 1.0000
vt 0.0000 0.0000
vt 1.0000 1.0000
vn 0.0000 1.0000 -0.0000
usemtl material
s 1
f 25/30/5 26/31/5 27/32/5
f 25/33/5 29/34/5 26/35/5
f 25/33/5 28/36/5 29/34/5
o SketchUp.004_ID43
v -0.056090 0.652515 0.000000
v -0.056090 0.609600 -0.100581
v -0.056090 0.666094 0.000000
v -0.056090 0.682040 0.000000
v -0.056090 0.738824 0.000000
v -0.056090 0.745834 0.000000
v -0.056090 0.752694 0.000000
v -0.056090 2.072605 -0.200000
v -0.056090 2.057400 -0.100581
v -0.056090 2.057400 -0.200000
v -0.056090 2.257073 -0.200000
v -0.056090 2.232270 0.000000
v -0.056090 2.187557 0.000000
v -0.056090 2.213720 -0.200000
v -0.056090 0.609600 0.000000
v -0.056090 2.058316 0.000000
v -0.056090 3.048000 0.000000
v -0.056090 3.048000 -0.200000
vt 12.2800 0.9515
vt 12.5000 0.8889
vt 12.2800 0.9713
vt 12.2800 0.9945
vt 12.2800 1.0773
vt 12.2800 1.0875
vt 12.2800 1.0975
vt 12.7175 3.0222
vt 12.5000 3.0000
vt 12.7175 3.0000
vt 12.2800 3.2550
vt 12.7174 3.2279
vt 12.7175 3.2912
vt 12.2800 0.8889
vt 12.2800 3.1898
vt 12.2800 4.4444
vt 12.7175 4.4444
vt 12.2800 3.0013
vn 1.0000 0.0000 0.0000
usemtl Cladding_Stucco_White
s 1
f 30/37/6 31/38/6 32/39/6
f 32/39/6 31/38/6 33/40/6
f 33/40/6 31/38/6 34/41/6
f 34/41/6 31/38/6 35/42/6
f 35/42/6 31/38/6 36/43/6
f 37/44/6 38/45/6 39/46/6
f 41/47/6 43/48/6 40/49/6
f 31/38/6 30/37/6 44/50/6
f 42/51/6 38/45/6 43/48/6
f 38/45/6 36/43/6 31/38/6
f 46/52/6 40/49/6 47/53/6
f 41/47/6 42/51/6 43/48/6
f 37/44/6 43/48/6 38/45/6
f 42/51/6 45/54/6 38/45/6
f 38/45/6 45/54/6 36/43/6
f 46/52/6 41/47/6 40/49/6
o SketchUp.008_ID83
v -0.157690 2.057400 -0.100581
v -0.157690 1.981200 -0.176781
v -0.157690 0.000000 -0.100581
v -0.157690 0.000000 -0.176781
v -0.056090 0.000000 -0.176781
v -0.056090 0.609600 -0.100581
v -0.056090 0.000000 -0.100581
v -0.056090 2.057400 -0.100581
v -0.056090 1.981200 -0.176781
v -0.056090 1.983780 -0.200000
v -0.056090 1.981200 -0.200000
v -0.153820 1.981200 -0.200000
v -0.157690 1.981200 -0.176781
v -0.157690 1.981200 -0.200000
v -0.157690 1.981200 -0.176781
v -0.056090 0.000000 -0.176781
v -0.157690 0.000000 -0.176781
v -0.056090 1.981200 -0.176781
v -0.056090 2.057400 -0.200000
v -0.157690 1.983780 -0.200000
v -0.157690 1.981200 -0.200000
v -0.157690 2.057400 -0.200000
v -0.056090 1.981200 -0.200000
v -0.056090 1.981200 -0.176781
vt -6.2500 2.2500
vt -6.3333 2.1667
vt -6.2500 0.0000
vt -6.3333 0.0000
vt 6.3333 0.0000
vt 6.2500 0.6667
vt 6.2500 0.0000
vt 6.2500 2.2500
vt 6.3333 2.1667
vt 6.3587 2.1695
vt 6.3587 2.1667
vt -6.6379 6.3587
vt -6.6337 6.3333
vt -6.6337 6.3587
vt -6.6337 2.1667
vt -6.7448 0.0000
vt -6.6337 0.0000
vt -6.7448 2.1667
vt 6.3587 2.2500
vt -6.3587 2.1695
vt -6.3587 2.1667
vt -6.3587 2.2500
vt -6.7448 6.3333
vt -6.7448 6.3587
vn -1.0000 0.0000 0.0000
vn 1.0000 0.0000 0.0000
vn 0.0000 -1.0000 0.0000
vn 0.0000 0.0000 -1.0000
usemtl Polished_Concrete_Old
s 1
f 48/55/7 49/56/7 50/57/7
f 51/58/7 50/57/7 49/56/7
f 52/59/8 53/60/8 54/61/8
f 53/60/8 52/59/8 55/62/8
f 55/62/8 52/59/8 56/63/8
f 57/64/8 56/63/8 58/65/8
f 59/66/9 60/67/9 61/68/9
f 62/69/10 63/70/10 64/71/10
f 63/70/10 62/69/10 65/72/10
f 56/63/8 66/73/8 55/62/8
f 49/56/7 67/74/7 68/75/7
f 49/56/7 69/76/7 67/74/7
f 59/66/9 71/77/9 60/67/9
f 56/63/8 57/64/8 66/73/8
f 49/56/7 48/55/7 69/76/7
f 59/66/9 70/78/9 71/77/9
o SketchUp.016_ID146
v -0.157690 0.000000 0.000000
v -0.157690 0.100777 0.000000
v -0.157690 0.000000 -0.100581
v -0.157690 2.051763 0.000000
v -0.157690 2.057400 -0.100581
v -0.157690 1.994979 0.000000
v -0.157690 0.129224 0.000000
v -0.157690 2.170675 0.000000
v -0.157690 2.197746 -0.200000
v -0.157690 2.163011 -0.200000
v -0.157690 2.134834 0.000000
v -0.157690 3.048000 0.000000
v -0.157690 3.048000 -0.200000
v -0.157690 2.072834 -0.200000
v -0.157690 2.057400 -0.200000
vt -20.2927 0.0000
vt -20.2927 0.3306
vt -20.6562 0.0000
vt -20.2927 6.7315
vt -20.6562 6.7500
vt -20.2927 6.5452
vt -20.2927 0.4240
vt -20.2927 7.1216
vt -21.0156 7.0965
vt -20.2927 7.0041
vt -20.2927 10.0000
vt -21.0156 7.2105
vt -21.0156 6.8006
vt -21.0156 6.7500
vt -21.0156 10.0000
vn -1.0000 -0.0000 0.0000
usemtl Quartz_Light_Grey
s 1
f 72/79/11 73/80/11 74/81/11
f 75/82/11 76/83/11 77/84/11
f 74/81/11 73/80/11 78/85/11
f 78/85/11 76/83/11 74/81/11
f 79/86/11 81/87/11 82/88/11
f 83/89/11 80/90/11 79/86/11
f 81/87/11 76/83/11 82/88/11
f 76/83/11 85/91/11 86/92/11
f 78/85/11 77/84/11 76/83/11
f 79/86/11 80/90/11 81/87/11
f 83/89/11 84/93/11 80/90/11
f 75/82/11 82/88/11 76/83/11
f 81/87/11 85/91/11 76/83/11
o SketchUp.011_ID105
v -0.153820 0.000000 -0.200000
v -0.157690 0.000000 -0.176781
v -0.157690 0.000000 -0.200000
v -0.056090 0.000000 -0.200000
v -0.056090 0.000000 -0.176781
v -0.157690 0.000000 -0.200000
v -0.157690 0.000000 -0.176781
v -0.153820 0.000000 -0.200000
v -0.056090 0.000000 -0.176781
v -0.056090 0.000000 -0.200000
vt -13.2674 8.4783
vt -13.2674 8.4444
vt -13.2758 8.4783
vt -13.4896 8.4444
vt -13.4896 8.4783
vt 0.0000 0.0000
vt 0.0000 0.0000
vt 0.0000 0.0000
vt 0.0000 0.0000
vt 0.0000 0.0000
vn 0.0000 1.0000 0.0000
vn 0.0000 -1.0000 -0.0000
usemtl Cladding_Stucco_White
s 1
f 92/94/12 93/95/12 94/96/12
f 95/97/12 94/96/12 93/95/12
f 95/97/12 96/98/12 94/96/12
usemtl material
f 87/99/13 88/100/13 89/101/13
f 87/99/13 91/102/13 88/100/13
f 87/99/13 90/103/13 91/102/13
