# Blender v2.78 (sub 0) OBJ File: ''
# www.blender.org
mtllib f_door_right.mtl
o SketchUp_ID3
v -0.005290 0.609600 -0.085936
v -0.056090 0.000000 -0.085936
v -0.005290 0.000000 -0.085936
v -0.056090 0.609600 -0.085936
v -0.005290 0.595071 -0.223355
v -0.005290 0.609600 -0.085936
v -0.005290 0.000000 -0.085936
v -0.005290 0.000000 -0.223355
v -0.005290 0.609600 -0.223355
v -0.006512 0.609600 -0.223355
v -0.005290 0.609600 -0.085936
v -0.056090 0.609600 -0.223355
v -0.056090 0.609600 -0.085936
v -0.005290 0.609600 -0.223355
vt 2.9144 0.2857
vt 2.8906 0.0000
vt 2.9144 0.0000
vt 2.8906 0.2857
vt 3.1001 0.2789
vt 3.0357 0.0000
vt 3.1001 0.0000
vt 2.9144 3.1001
vt 2.9139 3.1001
vt 2.9144 3.0357
vt 2.8906 3.0357
vt 3.0357 0.2857
vt 3.1001 0.2857
vt 2.8906 3.1001
vn 0.0000 -0.0000 1.0000
vn 1.0000 -0.0000 0.0000
vn 0.0000 1.0000 0.0000
usemtl Stone_Coursed_Rough
s 1
f 1/1/1 2/2/1 3/3/1
f 2/2/1 1/1/1 4/4/1
f 5/5/2 7/6/2 8/7/2
f 9/8/3 10/9/3 11/10/3
f 10/9/3 13/11/3 11/10/3
f 6/12/2 5/5/2 14/13/2
f 5/5/2 6/12/2 7/6/2
f 10/9/3 12/14/3 13/11/3
o SketchUp.007_ID77
v -0.157690 0.000000 -0.223355
v -0.154058 0.000000 -0.223355
v -0.157690 0.000000 -0.085936
v -0.056090 0.000000 -0.009736
v -0.157690 0.000000 -0.009736
v -0.056090 0.000000 -0.085936
v -0.152117 0.000000 -0.223355
v -0.054879 0.000000 -0.223355
v -0.005290 0.000000 -0.223355
v -0.005290 0.000000 -0.085936
vt 0.0000 0.0000
vt 1.0000 0.0000
vt 1.0000 1.0000
vt 0.0000 0.0000
vt 1.0000 0.0000
vt 1.0000 1.0000
vt 0.0000 0.0000
vt 1.0000 1.0000
vt 0.0000 1.0000
vt 1.0000 0.0000
vt 0.0000 1.0000
vt 0.0000 0.0000
vt 1.0000 0.0000
vt 0.0000 1.0000
vt 0.0000 0.0000
vt 1.0000 1.0000
vt 1.0000 1.0000
vn 0.0000 -1.0000 -0.0000
usemtl material
s 1
f 15/15/4 16/16/4 17/17/4
f 18/18/4 19/19/4 20/20/4
f 17/21/4 21/22/4 19/23/4
f 21/24/4 20/25/4 19/26/4
f 22/27/4 24/28/4 20/29/4
f 17/21/4 16/16/4 21/22/4
f 21/24/4 22/30/4 20/25/4
f 22/27/4 23/31/4 24/28/4
o SketchUp.001_ID18
v -0.146232 2.057400 -0.000001
v -0.157690 2.057400 -0.085936
v -0.157690 2.057400 -0.000001
v -0.056090 2.057400 -0.000001
v -0.056090 2.057400 -0.085936
vt 0.0000 0.0000
vt 1.0000 0.0000
vt 1.0000 1.0000
vt 1.0000 0.0000
vt 0.0000 1.0000
vt 0.0000 0.0000
vt 1.0000 1.0000
vn 0.0000 1.0000 0.0000
usemtl material
s 1
f 25/32/5 26/33/5 27/34/5
f 25/35/5 29/36/5 26/37/5
f 25/35/5 28/38/5 29/36/5
o SketchUp.004_ID43
v -0.056090 0.713010 -0.223355
v -0.056090 0.609600 -0.085936
v -0.056090 0.609600 -0.223355
v -0.056090 2.081219 -0.223355
v -0.056090 2.057400 -0.085936
v -0.056090 2.058084 -0.223355
v -0.056090 1.977058 -0.223355
v -0.056090 1.968293 -0.223355
v -0.056090 3.048000 0.000000
v -0.056090 2.328587 0.000000
v -0.056090 2.356286 -0.223355
v -0.056090 3.048000 -0.223356
v -0.056090 2.289154 0.000000
v -0.056090 2.318372 -0.223355
v -0.056090 2.160798 0.000000
v -0.056090 2.194958 -0.223354
v -0.056090 2.057400 -0.000001
vt 14.4672 1.0397
vt 14.1667 0.8889
vt 14.4672 0.8889
vt 14.4672 3.0347
vt 14.1667 3.0000
vt 14.4672 3.0010
vt 14.4672 2.8828
vt 14.4672 2.8701
vt 13.9787 4.4444
vt 14.4672 3.4358
vt 14.4672 4.4444
vt 13.9787 3.3954
vt 14.4672 3.3805
vt 13.9787 3.3379
vt 14.4672 3.2006
vt 13.9787 3.1508
vt 13.9787 3.0000
vn 1.0000 0.0000 0.0000
usemtl Cladding_Stucco_White
s 1
f 30/39/6 31/40/6 32/41/6
f 33/42/6 34/43/6 35/44/6
f 35/44/6 34/43/6 36/45/6
f 36/45/6 34/43/6 37/46/6
f 38/47/6 40/48/6 41/49/6
f 30/39/6 34/43/6 31/40/6
f 39/50/6 43/51/6 40/48/6
f 42/52/6 45/53/6 43/51/6
f 44/54/6 34/43/6 45/53/6
f 38/47/6 39/50/6 40/48/6
f 30/39/6 37/46/6 34/43/6
f 39/50/6 42/52/6 43/51/6
f 42/52/6 44/54/6 45/53/6
f 33/42/6 45/53/6 34/43/6
f 44/54/6 46/55/6 34/43/6
o SketchUp.008_ID83
v -0.056090 1.981200 -0.009736
v -0.157690 0.000000 -0.009736
v -0.056090 0.000000 -0.009736
v -0.157690 1.981200 -0.009736
v -0.157690 2.047852 0.000000
v -0.157690 2.057400 -0.000001
v -0.157690 2.057400 -0.085936
v -0.157690 1.981200 -0.009736
v -0.157690 1.981200 -0.000001
v -0.157690 0.000000 -0.009736
v -0.157690 0.000000 -0.085936
v -0.056090 0.000000 -0.085936
v -0.056090 1.981200 -0.009736
v -0.056090 0.000000 -0.009736
v -0.056090 2.057400 -0.000001
v -0.056090 2.047852 0.000000
v -0.056090 2.057400 -0.085936
v -0.056090 0.609600 -0.085936
v -0.057713 1.981200 -0.000001
v -0.056090 1.981200 -0.009736
v -0.056090 1.981200 -0.000001
v -0.056090 1.981200 -0.000001
v -0.157690 1.981200 -0.000001
v -0.157690 1.981200 -0.009736
vt 6.7448 2.1667
vt 6.6337 0.0000
vt 6.7448 0.0000
vt 6.6337 2.1667
vt -6.9894 2.2396
vt -6.9894 2.2500
vt -7.0833 2.2500
vt -7.0000 2.1667
vt -6.9894 2.1667
vt -7.0000 0.0000
vt -7.0833 0.0000
vt 7.0833 0.0000
vt 7.0000 2.1667
vt 7.0000 0.0000
vt 6.9894 2.2500
vt 6.9894 2.2396
vt 7.0833 2.2500
vt 7.0833 0.6667
vt -6.7430 6.9894
vt -6.7448 7.0000
vt -6.7448 6.9894
vt -6.6337 7.0000
vt 6.9894 2.1667
vt -6.6337 6.9894
vn 0.0000 -0.0000 1.0000
vn -1.0000 0.0000 0.0000
vn 1.0000 0.0000 0.0000
vn 0.0000 -1.0000 -0.0000
vn 0.0000 -1.0000 -0.0001
usemtl Polished_Concrete_Old
s 1
f 47/56/7 48/57/7 49/58/7
f 48/57/7 47/56/7 50/59/7
f 51/60/8 52/61/8 53/62/8
f 51/60/8 54/63/8 55/64/8
f 54/63/8 53/62/8 56/65/8
f 56/65/8 53/62/8 57/66/8
f 58/67/9 59/68/9 60/69/9
f 61/70/9 62/71/9 63/72/9
f 63/72/9 59/68/9 58/67/9
f 63/72/9 58/67/9 64/73/9
f 65/74/10 66/75/11 67/76/10
f 62/71/9 59/68/9 63/72/9
f 65/74/10 70/77/10 66/75/11
f 51/60/8 53/62/8 54/63/8
f 62/71/9 68/78/9 59/68/9
f 65/74/10 69/79/10 70/77/10
o SketchUp.016_ID146
v -0.157690 0.184182 -0.223355
v -0.157690 0.000000 -0.085936
v -0.157690 0.261444 -0.223355
v -0.157690 2.275797 0.000000
v -0.157690 2.306028 -0.223355
v -0.157690 2.275717 -0.223355
v -0.157690 2.244250 0.000000
v -0.157690 3.048000 0.000000
v -0.157690 3.048000 -0.223355
v -0.157690 2.057400 -0.085936
v -0.157690 2.081625 -0.223355
v -0.157690 2.058084 -0.223355
v -0.157690 2.197024 -0.223355
v -0.157690 2.162351 0.000000
v -0.157690 2.057400 -0.000001
v -0.157690 0.000000 -0.223355
vt -23.9071 0.6043
vt -23.4104 0.0000
vt -23.9071 0.8578
vt -23.0998 7.4665
vt -23.9071 7.4663
vt -23.0998 7.3630
vt -23.0998 10.0000
vt -23.9071 7.5657
vt -23.4104 6.7500
vt -23.9071 6.8295
vt -23.9071 6.7522
vt -23.9071 7.2081
vt -23.0998 7.0943
vt -23.9071 0.0000
vt -23.9071 10.0000
vt -23.0998 6.7500
vn -1.0000 -0.0000 0.0000
usemtl Quartz_Light_Grey
s 1
f 71/80/12 72/81/12 73/82/12
f 74/83/12 76/84/12 77/85/12
f 78/86/12 75/87/12 74/83/12
f 80/88/12 81/89/12 82/90/12
f 80/88/12 73/82/12 72/81/12
f 77/85/12 83/91/12 84/92/12
f 83/91/12 80/88/12 84/92/12
f 72/81/12 71/80/12 86/93/12
f 74/83/12 75/87/12 76/84/12
f 78/86/12 79/94/12 75/87/12
f 80/88/12 82/90/12 73/82/12
f 77/85/12 76/84/12 83/91/12
f 85/95/12 84/92/12 80/88/12
f 83/91/12 81/89/12 80/88/12
o SketchUp.011_ID105
v -0.057713 0.000000 -0.000001
v -0.056090 0.000000 -0.009736
v -0.056090 0.000000 -0.000001
v -0.157690 0.000000 -0.000001
v -0.157690 0.000000 -0.009736
v -0.056090 0.000000 -0.000001
v -0.056090 0.000000 -0.009736
v -0.057713 0.000000 -0.000001
v -0.157690 0.000000 -0.009736
v -0.157690 0.000000 -0.000001
vt -13.4896 9.3191
vt -13.4896 9.3333
vt -13.4860 9.3191
vt -13.2674 9.3333
vt -13.2674 9.3191
vt 0.0000 0.0000
vt 0.0000 0.0000
vt 0.0000 0.0000
vt 0.0000 0.0000
vt 0.0000 0.0000
vn 0.0000 1.0000 0.0000
vn 0.0000 -1.0000 -0.0000
usemtl Cladding_Stucco_White
s 1
f 92/96/13 93/97/13 94/98/13
f 95/99/13 94/98/13 93/97/13
f 95/99/13 96/100/13 94/98/13
usemtl material
f 87/101/14 88/102/14 89/103/14
f 87/101/14 91/104/14 88/102/14
f 87/101/14 90/105/14 91/104/14
