# Blender v2.78 (sub 0) OBJ File: ''
# www.blender.org
mtllib f_wall_back_01.mtl
o SketchUp_ID3
v -0.170634 0.609600 -1.000000
v -0.170634 0.195412 -1.000000
v -0.170634 0.245205 0.000000
v -0.170634 0.609600 0.000000
v -0.102372 0.609600 -1.000000
v -0.148469 0.609600 -1.000000
v -0.142893 0.609600 0.000000
v -0.102372 0.609600 -0.000001
v -0.170634 0.000000 0.000000
v -0.170634 0.000000 -1.000000
v -0.170634 0.609600 0.000000
v -0.170634 0.609600 -1.000000
v -0.170634 0.195412 -1.000000
v -0.170634 0.245205 0.000000
v -0.170634 0.000000 0.000000
v -0.170634 0.000000 -1.000000
v -0.170634 0.609600 -1.000000
v -0.170634 0.609600 0.000000
vt 0.0000 0.0000
vt 0.0000 0.0000
vt 0.0000 0.0000
vt 0.0000 0.0000
vt 0.0000 0.0000
vt 0.0000 0.0000
vt 3.8749 0.2857
vt 3.4062 0.1149
vt 3.4062 0.2857
vt 0.0335 3.8749
vt 0.0145 3.4062
vt 0.0335 3.4062
vt 3.4062 0.0000
vt 3.8749 0.0916
vt 3.8749 0.0000
vt 0.0015 3.4062
vt 0.0119 3.8749
vt 0.0015 3.8749
vn 1.0000 -0.0000 0.0000
vn -1.0000 -0.0000 0.0000
vn 0.0000 1.0000 0.0000
usemtl material
s 1
f 13/1/1 15/2/1 16/3/1
f 14/4/1 17/5/1 18/6/1
f 13/1/1 14/4/1 15/2/1
f 14/4/1 13/1/1 17/5/1
usemtl Stone_Coursed_Rough
f 1/7/2 3/8/2 4/9/2
f 5/10/3 7/11/3 8/12/3
f 9/13/2 2/14/2 10/15/2
f 11/16/3 6/17/3 12/18/3
f 1/7/2 2/14/2 3/8/2
f 5/10/3 6/17/3 7/11/3
f 9/13/2 3/8/2 2/14/2
f 11/16/3 7/11/3 6/17/3
o SketchUp.004_ID43
v -0.102372 2.263093 -1.000000
v -0.102372 2.063093 0.000000
v -0.102372 3.048000 0.000000
v -0.102372 3.048000 -1.000000
v -0.102372 0.609600 -1.000000
v -0.102372 0.609600 -0.000001
vt -18.0828 3.2999
vt -15.8956 4.4444
vt -18.0828 4.4444
vt -15.8956 3.0083
vt -18.0828 0.8889
vt -15.8956 0.8889
vn -1.0000 -0.0000 0.0000
usemtl Cladding_Stucco_White
s 1
f 19/19/4 21/20/4 22/21/4
f 20/22/4 23/23/4 24/24/4
f 19/19/4 20/22/4 21/20/4
f 20/22/4 19/19/4 23/23/4
o SketchUp.016_ID146
v -0.019083 0.971259 -1.000000
v -0.019083 1.224937 0.000000
v -0.019083 0.000000 0.000000
v -0.019083 0.000000 -1.000000
v -0.019083 3.048000 -1.000000
v -0.019083 3.048000 -0.000001
vt 29.8819 3.1865
vt 26.2675 0.0000
vt 29.8819 0.0000
vt 26.2675 4.0188
vt 29.8819 10.0000
vt 26.2675 10.0000
vn 1.0000 -0.0000 0.0000
usemtl Quartz_Light_Grey
s 1
f 25/25/5 27/26/5 28/27/5
f 26/28/5 29/29/5 30/30/5
f 25/25/5 26/28/5 27/26/5
f 26/28/5 25/25/5 29/29/5
o SketchUp.007_ID77
v -0.170634 0.000000 -1.000000
v -0.066852 0.000000 -1.000000
v -0.079328 0.000000 -0.000001
v -0.170634 0.000000 -0.000001
v -0.019083 0.000000 -0.000001
v -0.019083 0.000000 -1.000000
vt 0.0000 0.0000
vt 1.0000 1.0000
vt 0.0000 1.0000
vt 0.0000 0.0000
vt 1.0000 1.0000
vt 0.0000 1.0000
vt 1.0000 0.0000
vt 1.0000 0.0000
vn 0.0000 -1.0000 -0.0000
usemtl material
s 1
f 31/31/6 33/32/6 34/33/6
f 35/34/6 32/35/6 36/36/6
f 31/31/6 32/37/6 33/32/6
f 35/34/6 33/38/6 32/35/6
o SketchUp.003_ID30
v 0.000000 0.000000 -1.000000
v 0.000000 0.000000 -0.000001
v -0.019083 0.000000 -0.000001
v -0.019083 0.000000 -1.000000
v -0.019083 0.000000 -1.000000
v -0.019083 0.000000 -0.000001
v 0.000000 0.000000 -0.000001
v 0.000000 0.000000 -1.000000
vt -0.1590 7.4681
vt -0.1786 8.4957
vt -0.1590 8.4957
vt -0.1786 7.4681
vt 0.0000 0.0000
vt 0.0000 0.0000
vt 0.0000 0.0000
vt 0.0000 0.0000
vn 0.0000 1.0000 0.0000
vn 0.0000 -1.0000 -0.0000
usemtl Modern_Siding
s 1
f 42/39/7 44/40/7 41/41/7
f 42/39/7 43/42/7 44/40/7
usemtl material
f 38/43/8 40/44/8 37/45/8
f 38/43/8 39/46/8 40/44/8
