# Blender v2.78 (sub 0) OBJ File: ''
# www.blender.org
mtllib f_wall_window.mtl
o SketchUp.005_ID56
v -0.033837 1.387281 -0.725289
v -0.059237 1.328544 -0.725289
v -0.033837 1.328544 -0.725289
v -0.059237 1.387281 -0.725289
v -0.033837 1.387281 -0.725289
v -0.033837 1.328544 -0.314126
v -0.033837 1.387281 -0.314126
v -0.033837 1.328544 -0.725289
v -0.033837 1.387281 -0.725289
v -0.059237 1.387281 -0.669726
v -0.059237 1.387281 -0.725289
v -0.059237 1.387281 -0.364926
v -0.059237 1.387281 -0.314126
v -0.033837 1.387281 -0.314126
v -0.033837 1.328544 -0.314126
v -0.059237 1.328544 -0.725289
v -0.059237 1.328544 -0.314126
v -0.033837 1.328544 -0.725289
v -0.059237 1.387281 -0.314126
v -0.033837 1.328544 -0.314126
v -0.059237 1.328544 -0.314126
v -0.033837 1.387281 -0.314126
v -0.160837 1.387281 -0.364926
v -0.160837 1.387281 -0.669726
v -0.059237 1.387281 -0.725289
v -0.033837 1.387281 -0.725289
v -0.059237 1.328544 -0.725289
v -0.033837 1.328544 -0.725289
v -0.033837 1.328544 -0.725289
v -0.033837 1.387281 -0.725289
v -0.033837 1.328544 -0.314126
v -0.033837 1.387281 -0.314126
v -0.033837 1.387281 -0.314126
v -0.033837 1.387281 -0.725289
v -0.059237 1.387281 -0.314126
v -0.059237 1.387281 -0.364926
v -0.059237 1.387281 -0.669726
v -0.059237 1.387281 -0.725289
v -0.033837 1.328544 -0.725289
v -0.033837 1.328544 -0.314126
v -0.059237 1.328544 -0.725289
v -0.059237 1.328544 -0.314126
v -0.033837 1.387281 -0.314126
v -0.059237 1.387281 -0.314126
v -0.033837 1.328544 -0.314126
v -0.059237 1.328544 -0.314126
v -0.160837 1.387281 -0.364926
v -0.160837 1.387281 -0.669726
vt 6.7448 1.5171
vt 6.7726 1.5171
vt 6.7448 1.4529
vt 6.7726 1.4529
vt -5.1299 1.4529
vt -5.1299 1.5171
vt -4.6802 1.4529
vt -4.6802 1.5171
vt -6.7726 4.6802
vt -6.7726 5.1299
vt -6.7448 4.6802
vt -6.7448 4.7358
vt -6.7448 5.0691
vt -6.7448 5.1299
vt 6.7726 5.1299
vt 6.7726 4.6802
vt 6.7448 5.1299
vt 6.7448 4.6802
vt -6.7726 1.5171
vt -6.7448 1.5171
vt -6.7726 1.4529
vt -6.7448 1.4529
vt -6.6337 4.7358
vt -6.6337 5.0691
vt 0.0000 0.0000
vt 0.0000 0.0000
vt 0.0000 0.0000
vt 0.0000 0.0000
vt 0.0000 0.0000
vt 0.0000 0.0000
vt 0.0000 0.0000
vt 0.0000 0.0000
vt 0.0000 0.0000
vt 0.0000 0.0000
vt 0.0000 0.0000
vt 0.0000 0.0000
vt 0.0000 0.0000
vt 0.0000 0.0000
vt 0.0000 0.0000
vt 0.0000 0.0000
vt 0.0000 0.0000
vt 0.0000 0.0000
vt 0.0000 0.0000
vt 0.0000 0.0000
vt 0.0000 0.0000
vt 0.0000 0.0000
vt 0.0000 0.0000
vt 0.0000 0.0000
vn 0.0000 0.0000 -1.0000
vn 1.0000 0.0000 0.0000
vn 0.0000 1.0000 0.0000
vn 0.0000 -1.0000 0.0000
vn 0.0000 -0.0000 1.0000
vn -1.0000 0.0000 0.0000
usemtl Polished_Concrete_Old
s 1
f 25/1/1 26/2/1 27/3/1
f 28/4/1 27/3/1 26/2/1
f 29/5/2 30/6/2 31/7/2
f 32/8/2 31/7/2 30/6/2
f 33/9/3 34/10/3 35/11/3
f 35/11/3 34/10/3 36/12/3
f 36/12/3 34/10/3 37/13/3
f 38/14/3 37/13/3 34/10/3
f 39/15/4 40/16/4 41/17/4
f 42/18/4 41/17/4 40/16/4
f 43/19/5 44/20/5 45/21/5
f 46/22/5 45/21/5 44/20/5
f 36/12/3 37/13/3 47/23/3
f 48/24/3 47/23/3 37/13/3
usemtl material
f 1/25/5 2/26/5 3/27/5
f 2/26/5 1/25/5 4/28/5
f 5/29/6 6/30/6 7/31/6
f 6/30/6 5/29/6 8/32/6
f 9/33/4 10/34/4 11/35/4
f 10/34/4 9/33/4 12/36/4
f 12/36/4 9/33/4 13/37/4
f 13/37/4 9/33/4 14/38/4
f 15/39/3 16/40/3 17/41/3
f 16/40/3 15/39/3 18/42/3
f 19/43/1 20/44/1 21/45/1
f 20/44/1 19/43/1 22/46/1
f 10/34/4 23/47/4 24/48/4
f 23/47/4 10/34/4 12/36/4
o SketchUp.015_ID140
v -0.059237 1.996881 -0.364926
v -0.160837 1.387281 -0.364926
v -0.059237 1.387281 -0.364926
v -0.160837 1.996881 -0.364926
vt 0.0000 0.0000
vt 1.0000 0.0000
vt 1.0000 1.0000
vt 0.0000 0.0000
vt 1.0000 0.0000
vt 1.0000 1.0000
vn 0.0000 -0.0000 1.0000
usemtl material
s 1
f 49/49/7 50/50/7 51/51/7
f 50/52/7 49/53/7 52/54/7
o SketchUp.004_ID43
v -0.059237 1.996881 -0.364926
v -0.059237 1.996881 -0.314126
v -0.059237 1.387281 -0.364926
v -0.059237 1.527231 0.000000
v -0.059237 2.074034 0.000000
v -0.059237 2.151791 -1.000000
v -0.059237 2.066731 -0.314126
v -0.059237 2.066731 -0.725289
v -0.059237 2.102668 -1.000000
v -0.059237 2.064229 -1.000000
v -0.059237 1.675908 -1.000000
v -0.059237 1.356058 0.000000
v -0.059237 0.929391 -1.000000
v -0.059237 1.030579 -1.000000
v -0.059237 2.138757 0.000000
v -0.059237 3.048000 -1.000000
v -0.059237 3.048000 0.000000
v -0.059237 1.996881 -0.669726
v -0.059237 1.572554 -1.000000
v -0.059237 1.624793 -1.000000
v -0.059237 1.996881 -0.725289
v -0.059237 1.149412 -1.000000
v -0.059237 1.387281 -0.669726
v -0.059237 0.609600 0.000000
v -0.059237 0.609600 -1.000000
vt 9.4716 2.9118
vt 9.3605 2.9118
vt 9.4716 2.0229
vt 8.6734 2.2269
vt 8.6734 3.0243
vt 10.8607 3.1376
vt 10.2598 3.0136
vt 10.8606 3.0660
vt 10.8606 3.0100
vt 10.8606 2.4437
vt 10.8606 1.3552
vt 8.6734 1.9773
vt 9.3605 3.0136
vt 10.8607 4.4444
vt 8.6734 4.4444
vt 10.1383 2.9118
vt 10.8606 2.3692
vt 10.2598 2.9118
vt 10.8606 1.5027
vt 10.1383 2.0229
vt 10.8607 2.2930
vt 8.6734 0.8889
vt 10.8606 0.8889
vt 8.6734 3.1186
vt 10.8607 1.6760
vn 1.0000 0.0000 0.0000
usemtl Cladding_Stucco_White
s 1
f 53/55/8 54/56/8 55/57/8
f 56/58/8 54/56/8 57/59/8
f 58/60/8 60/61/8 61/62/8
f 61/62/8 60/61/8 62/63/8
f 62/63/8 60/61/8 63/64/8
f 65/65/8 55/57/8 64/66/8
f 59/67/8 68/68/8 69/69/8
f 70/70/8 72/71/8 73/72/8
f 73/72/8 63/64/8 60/61/8
f 66/73/8 75/74/8 55/57/8
f 75/74/8 71/75/8 70/70/8
f 65/65/8 76/76/8 77/77/8
f 59/67/8 57/59/8 54/56/8
f 56/58/8 55/57/8 54/56/8
f 58/60/8 59/67/8 60/61/8
f 56/58/8 64/66/8 55/57/8
f 65/65/8 66/73/8 55/57/8
f 69/69/8 67/78/8 59/67/8
f 59/67/8 58/60/8 68/68/8
f 70/70/8 71/75/8 72/71/8
f 73/72/8 72/71/8 63/64/8
f 66/73/8 74/79/8 75/74/8
f 75/74/8 74/79/8 71/75/8
f 65/65/8 64/66/8 76/76/8
f 59/67/8 67/78/8 57/59/8
o SketchUp_ID3
v -0.008437 0.079243 -1.000000
v -0.008437 0.184970 0.000000
v -0.008437 0.000000 0.000000
v -0.008437 0.000000 -1.000000
v -0.052633 0.609600 -1.000000
v -0.043822 0.609600 0.000000
v -0.008437 0.609600 0.000000
v -0.008437 0.609600 -1.000000
v -0.008437 0.609600 -1.000000
v -0.008437 0.609600 0.000000
v -0.059237 0.609600 0.000000
v -0.059237 0.609600 -1.000000
vt 2.3273 0.0371
vt 1.8586 0.0000
vt 2.3273 0.0000
vt 2.8978 1.8586
vt 2.9144 2.3273
vt 2.8937 2.3273
vt 1.8586 0.0867
vt 2.3273 0.2857
vt 1.8586 0.2857
vt 2.8906 1.8586
vt 2.8906 2.3273
vt 2.9144 1.8586
vn 1.0000 -0.0000 0.0000
vn 0.0000 1.0000 0.0000
usemtl Stone_Coursed_Rough
s 1
f 78/80/9 80/81/9 81/82/9
f 83/83/10 85/84/10 82/85/10
f 79/86/9 86/87/9 87/88/9
f 88/89/10 82/85/10 89/90/10
f 78/80/9 79/86/9 80/81/9
f 83/83/10 84/91/10 85/84/10
f 79/86/9 78/80/9 86/87/9
f 88/89/10 83/83/10 82/85/10
o SketchUp.002_ID24
v -0.160837 1.996881 -0.669726
v -0.059237 1.387281 -0.669726
v -0.160837 1.387281 -0.669726
v -0.059237 1.996881 -0.669726
vt 0.0000 0.0000
vt 1.0000 0.0000
vt 1.0000 1.0000
vt 0.0000 0.0000
vt 1.0000 0.0000
vt 1.0000 1.0000
vn 0.0000 0.0000 -1.0000
usemtl material
s 1
f 90/92/11 91/93/11 92/94/11
f 91/95/11 90/96/11 93/97/11
o SketchUp.013_ID119
v -0.033837 1.996881 -0.314126
v -0.059237 1.996881 -0.364926
v -0.059237 1.996881 -0.314126
v -0.059237 1.996881 -0.669726
v -0.059237 1.996881 -0.725289
v -0.033837 1.996881 -0.725289
v -0.160837 1.996881 -0.669726
v -0.160837 1.996881 -0.364926
v -0.033837 1.996881 -0.725289
v -0.033837 1.996881 -0.314126
v -0.059237 1.996881 -0.725289
v -0.059237 1.996881 -0.669726
v -0.059237 1.996881 -0.364926
v -0.059237 1.996881 -0.314126
v -0.160837 1.996881 -0.669726
v -0.160837 1.996881 -0.364926
vt 20.3177 15.3897
vt 20.3177 14.0407
vt 20.2344 15.3897
vt 20.2344 15.2074
vt 20.2344 14.2074
vt 20.2344 14.0407
vt 19.9010 15.2074
vt 19.9010 14.2074
vt 0.0000 0.0000
vt 0.0000 0.0000
vt 0.0000 0.0000
vt 0.0000 0.0000
vt 0.0000 0.0000
vt 0.0000 0.0000
vt 0.0000 0.0000
vt 0.0000 0.0000
vn 0.0000 -1.0000 -0.0000
vn -0.0000 1.0000 0.0000
usemtl Granite_Light_Gray
s 1
f 102/98/12 103/99/12 104/100/12
f 104/100/12 103/99/12 105/101/12
f 105/101/12 103/99/12 106/102/12
f 107/103/12 106/102/12 103/99/12
f 105/101/12 106/102/12 108/104/12
f 109/105/12 108/104/12 106/102/12
usemtl material
f 94/106/13 95/107/13 96/108/13
f 95/107/13 94/106/13 97/109/13
f 97/109/13 94/106/13 98/110/13
f 98/110/13 94/106/13 99/111/13
f 95/107/13 100/112/13 101/113/13
f 100/112/13 95/107/13 97/109/13
o SketchUp.014_ID132
v -0.059237 2.066731 -0.314126
v -0.033837 1.996881 -0.314126
v -0.059237 1.996881 -0.314126
v -0.033837 2.066731 -0.314126
v -0.033837 2.066731 -0.725289
v -0.033837 1.996881 -0.314126
v -0.033837 2.066731 -0.314126
v -0.033837 1.996881 -0.725289
v -0.033837 2.066731 -0.725289
v -0.059237 2.066731 -0.314126
v -0.059237 2.066731 -0.725289
v -0.033837 2.066731 -0.314126
v -0.033837 2.066731 -0.725289
v -0.059237 1.996881 -0.725289
v -0.033837 1.996881 -0.725289
v -0.059237 2.066731 -0.725289
v -0.033837 2.066731 -0.314126
v -0.059237 2.066731 -0.314126
v -0.033837 1.996881 -0.314126
v -0.059237 1.996881 -0.314126
v -0.033837 1.996881 -0.725289
v -0.033837 2.066731 -0.725289
v -0.033837 1.996881 -0.314126
v -0.033837 2.066731 -0.314126
v -0.033837 2.066731 -0.314126
v -0.033837 2.066731 -0.725289
v -0.059237 2.066731 -0.314126
v -0.059237 2.066731 -0.725289
v -0.059237 2.066731 -0.725289
v -0.033837 2.066731 -0.725289
v -0.059237 1.996881 -0.725289
v -0.033837 1.996881 -0.725289
vt -6.7726 2.2602
vt -6.7448 2.2602
vt -6.7726 2.1838
vt -6.7448 2.1838
vt -5.1299 2.1838
vt -5.1299 2.2602
vt -4.6802 2.1838
vt -4.6802 2.2602
vt -6.7726 4.6802
vt -6.7726 5.1299
vt -6.7448 4.6802
vt -6.7448 5.1299
vt 6.7448 2.2602
vt 6.7726 2.2602
vt 6.7448 2.1838
vt 6.7726 2.1838
vt 0.0000 0.0000
vt 0.0000 0.0000
vt 0.0000 0.0000
vt 0.0000 0.0000
vt 0.0000 0.0000
vt 0.0000 0.0000
vt 0.0000 0.0000
vt 0.0000 0.0000
vt 0.0000 0.0000
vt 0.0000 0.0000
vt 0.0000 0.0000
vt 0.0000 0.0000
vt 0.0000 0.0000
vt 0.0000 0.0000
vt 0.0000 0.0000
vt 0.0000 0.0000
vn 0.0000 0.0000 1.0000
vn 1.0000 0.0000 0.0000
vn 0.0000 1.0000 0.0000
vn 0.0000 0.0000 -1.0000
vn -1.0000 -0.0000 0.0000
vn 0.0000 -1.0000 0.0000
usemtl Polished_Concrete_Old
s 1
f 126/114/14 127/115/14 128/116/14
f 129/117/14 128/116/14 127/115/14
f 130/118/15 131/119/15 132/120/15
f 133/121/15 132/120/15 131/119/15
f 134/122/16 135/123/16 136/124/16
f 137/125/16 136/124/16 135/123/16
f 138/126/17 139/127/17 140/128/17
f 141/129/17 140/128/17 139/127/17
usemtl material
f 110/130/17 111/131/17 112/132/17
f 111/131/17 110/130/17 113/133/17
f 114/134/18 115/135/18 116/136/18
f 115/135/18 114/134/18 117/137/18
f 118/138/19 119/139/19 120/140/19
f 119/139/19 118/138/19 121/141/19
f 122/142/14 123/143/14 124/144/14
f 123/143/14 122/142/14 125/145/14
o SketchUp.016_ID146
v -0.160837 0.750971 -1.000000
v -0.160837 1.387281 -0.364926
v -0.160837 1.387281 -0.669726
v -0.160837 0.962954 -1.000000
v -0.160837 1.592250 -1.000000
v -0.160837 2.087147 0.000000
v -0.160837 1.996881 -0.364926
v -0.160837 1.825397 0.000000
v -0.160837 1.268147 0.000000
v -0.160837 2.082841 -1.000000
v -0.160837 2.043411 -1.000000
v -0.160837 1.996881 -0.669726
v -0.160837 3.048000 0.000000
v -0.160837 3.048000 -1.000000
v -0.160837 0.000000 -1.000000
v -0.160837 0.000000 0.000000
v -0.160837 2.015392 -1.000000
vt -15.6518 4.5514
vt -17.9472 3.1593
vt -17.9472 2.4638
vt -16.7535 4.5514
vt -17.9472 5.2239
vt -14.3328 6.8476
vt -15.6518 6.5514
vt -14.3328 5.9888
vt -17.9472 6.8335
vt -16.7535 6.5514
vt -14.3328 10.0000
vt -17.9472 10.0000
vt -17.9472 0.0000
vt -14.3328 0.0000
vt -17.9472 6.7041
vt -17.9472 6.6122
vt -14.3328 4.1606
vn -1.0000 -0.0000 0.0000
usemtl Quartz_Light_Grey
s 1
f 143/146/20 145/147/20 142/148/20
f 145/147/20 144/149/20 146/150/20
f 147/151/20 148/152/20 149/153/20
f 143/146/20 149/153/20 148/152/20
f 151/154/20 153/155/20 148/152/20
f 154/156/20 155/157/20 148/152/20
f 142/148/20 156/158/20 157/159/20
f 153/155/20 152/160/20 158/161/20
f 153/155/20 146/150/20 144/149/20
f 143/146/20 144/149/20 145/147/20
f 143/146/20 150/162/20 149/153/20
f 151/154/20 152/160/20 153/155/20
f 151/154/20 148/152/20 155/157/20
f 147/151/20 154/156/20 148/152/20
f 157/159/20 150/162/20 142/148/20
f 143/146/20 142/148/20 150/162/20
f 153/155/20 158/161/20 146/150/20
o SketchUp.007_ID77
v -0.160837 0.000000 -1.000000
v -0.073928 0.000000 -1.000000
v -0.091721 0.000000 0.000000
v -0.160837 0.000000 0.000000
v -0.072753 0.000000 -1.000000
v -0.090786 0.000000 0.000000
v -0.043822 0.000000 0.000000
v -0.052633 0.000000 -1.000000
v -0.008437 0.000000 -1.000000
v -0.008437 0.000000 0.000000
vt 0.0000 0.0000
vt 1.0000 1.0000
vt 0.0000 1.0000
vt 1.0000 0.0000
vt 0.0000 1.0000
vt 0.0000 0.0000
vt 0.0000 0.0000
vt 1.0000 1.0000
vt 0.0000 1.0000
vt 1.0000 1.0000
vt 0.0000 1.0000
vt 1.0000 0.0000
vt 1.0000 0.0000
vn 0.0000 -1.0000 -0.0000
usemtl material
s 1
f 159/163/21 161/164/21 162/165/21
f 164/166/21 160/167/21 163/168/21
f 165/169/21 163/170/21 166/171/21
f 165/169/21 167/172/21 168/173/21
f 159/163/21 160/174/21 161/164/21
f 164/166/21 161/164/21 160/167/21
f 165/169/21 164/166/21 163/170/21
f 165/169/21 166/175/21 167/172/21
o SketchUp.012_ID113
v -0.059237 1.996881 -0.364926
v -0.059237 2.066731 -0.314126
v -0.059237 1.996881 -0.314126
v -0.059237 2.066731 -0.725289
v -0.059237 1.996881 -0.669726
v -0.059237 1.996881 -0.725289
vt 0.0000 0.0000
vt 1.0000 0.0000
vt 1.0000 1.0000
vt 0.0000 0.0000
vt 1.0000 0.0000
vt 1.0000 1.0000
vt 0.0000 0.0000
vt 1.0000 1.0000
vt 1.0000 0.0000
vt 1.0000 1.0000
vn 1.0000 0.0000 0.0000
usemtl material
s 1
f 169/176/22 170/177/22 171/178/22
f 170/179/22 169/180/22 172/181/22
f 172/182/22 169/180/22 173/183/22
f 172/182/22 173/184/22 174/185/22
