# Blender v2.78 (sub 0) OBJ File: 'House_00.blend'
# www.blender.org
mtllib f_wall_window_02.mtl
o SketchUp.017_ID159
v -0.064408 1.387281 -0.646198
v -0.064408 1.453201 -0.242973
v -0.064408 1.387281 -0.242973
v -0.064408 1.453201 -0.293773
v -0.064408 1.453201 -0.598573
v -0.064408 1.453201 -0.646198
vn 1.0000 0.0000 0.0000
usemtl material
s off
f 1//1 2//1 3//1
f 2//1 1//1 4//1
f 4//1 1//1 5//1
f 5//1 1//1 6//1
o SketchUp.016_ID146
v -0.166008 2.062800 -0.293773
v -0.166008 2.062800 -0.598573
v -0.166008 1.453201 -0.598573
v -0.166008 1.453201 -0.293773
v -0.166008 1.059458 -0.000000
v -0.166008 2.298402 -0.000000
v -0.166008 2.061337 -0.000000
v -0.166008 0.000000 -0.000000
v -0.166008 3.048000 -0.000001
v -0.166008 2.367720 -0.000000
v -0.166008 2.196751 -0.000000
v -0.166008 2.394421 -0.000000
v -0.166008 1.503888 -0.000000
v -0.166008 1.315296 -1.000000
v -0.166008 2.453640 -1.000000
v -0.166008 1.604543 -1.000000
v -0.166008 1.226892 -1.000000
v -0.166008 0.000000 -1.000000
v -0.166008 3.048000 -1.000000
v -0.166008 2.216226 -1.000000
v -0.166008 2.529774 -1.000000
v -0.166008 2.156293 -1.000000
v -0.166008 2.508603 -1.000000
v -0.166008 2.373041 -1.000000
vt -26.2675 6.7629
vt -27.3293 6.7677
vt -26.2675 4.9340
vt -29.8819 4.0252
vt -27.3293 4.7677
vt -28.4310 4.7677
vt -29.8819 4.3153
vt -29.8819 5.2642
vt -26.2675 3.4759
vt -26.2675 7.8557
vt -29.8819 8.2998
vt -29.8819 8.2303
vt -26.2675 7.7681
vt -26.2675 7.2072
vt -29.8819 7.7856
vt -29.8819 7.2711
vt -29.8819 7.0745
vt -28.4310 6.7677
vt -26.2675 10.0000
vt -29.8819 10.0000
vt -29.8819 0.0000
vt -26.2675 0.0000
vt -29.8819 8.0500
vt -26.2675 7.5407
vn -1.0000 0.0000 0.0000
usemtl Quartz_Light_Grey
s off
f 13/1/2 7/2/2 19/3/2
f 23/4/2 10/5/2 9/6/2 20/7/2
f 20/7/2 9/6/2 22/8/2
f 10/5/2 11/9/2 19/3/2 7/2/2
f 18/10/2 27/11/2 29/12/2 16/13/2
f 17/14/2 30/15/2 26/16/2 7/2/2 13/1/2
f 7/2/2 26/16/2 28/17/2 8/18/2
f 18/10/2 15/19/2 25/20/2 27/11/2
f 11/9/2 10/5/2 23/4/2 24/21/2 14/22/2
f 8/18/2 28/17/2 22/8/2 9/6/2
f 16/13/2 29/12/2 21/23/2 12/24/2
f 12/24/2 21/23/2 30/15/2 17/14/2
o SketchUp.010_ID99
v -0.035833 2.062800 -0.646198
v -0.064408 2.062800 -0.598573
v -0.064408 2.062800 -0.646198
v -0.064408 2.062800 -0.293773
v -0.064408 2.062800 -0.249323
v -0.035833 2.062800 -0.249323
v -0.166008 2.062800 -0.293773
v -0.166008 2.062800 -0.598573
v -0.064408 2.062800 -0.598573
v -0.166008 1.453201 -0.598573
v -0.064408 1.453201 -0.598573
v -0.166008 2.062800 -0.598573
v -0.166008 2.062800 -0.293773
v -0.064408 1.453201 -0.293773
v -0.166008 1.453201 -0.293773
v -0.064408 2.062800 -0.293773
vn 0.0000 -1.0000 0.0000
vn 0.0000 0.0000 1.0000
vn 0.0000 0.0000 -1.0000
usemtl material
s off
f 31//3 32//3 33//3
f 32//3 31//3 34//3
f 34//3 31//3 35//3
f 35//3 31//3 36//3
f 32//3 37//3 38//3
f 37//3 32//3 34//3
f 39//4 40//4 41//4
f 40//4 39//4 42//4
f 43//5 44//5 45//5
f 44//5 43//5 46//5
o SketchUp.009_ID91
v -0.035833 2.107250 -0.249323
v -0.064408 2.062800 -0.249323
v -0.035833 2.062800 -0.249323
v -0.064408 2.107250 -0.249323
v -0.035833 2.107250 -0.249323
v -0.064408 2.107250 -0.646198
v -0.064408 2.107250 -0.249323
v -0.035833 2.107250 -0.646198
v -0.035833 2.062800 -0.646198
v -0.035833 2.107250 -0.249323
v -0.035833 2.062800 -0.249323
v -0.035833 2.107250 -0.646198
v -0.064408 2.107250 -0.646198
v -0.035833 2.062800 -0.646198
v -0.064408 2.062800 -0.646198
v -0.035833 2.107250 -0.646198
vt 6.7760 2.3045
vt 6.7448 2.2559
vt 6.7760 2.2559
vt 6.7448 2.3045
vt 6.7760 8.2205
vt 6.7448 8.6545
vt 6.7448 8.2205
vt 6.7760 8.6545
vt 8.6545 2.2559
vt 8.2205 2.3045
vt 8.2205 2.2559
vt 8.6545 2.3045
vt -6.7448 2.3045
vt -6.7760 2.2559
vt -6.7448 2.2559
vt -6.7760 2.3045
vn 0.0000 0.0000 1.0000
vn 0.0000 1.0000 0.0000
vn 1.0000 0.0000 0.0000
vn 0.0000 0.0000 -1.0000
usemtl Polished_Concrete_Old
s off
f 47/25/6 48/26/6 49/27/6
f 48/26/6 47/25/6 50/28/6
f 51/29/7 52/30/7 53/31/7
f 52/30/7 51/29/7 54/32/7
f 55/33/8 56/34/8 57/35/8
f 56/34/8 55/33/8 58/36/8
f 59/37/9 60/38/9 61/39/9
f 60/38/9 59/37/9 62/40/9
o SketchUp.007_ID77
v -0.013608 0.000000 -0.000000
v -0.057444 0.000000 -0.000000
v -0.143399 0.000000 -0.000000
v -0.145114 0.000000 -0.000000
v -0.166008 0.000000 -0.000000
v -0.013608 0.000000 -1.000000
v -0.048633 0.000000 -1.000000
v -0.117312 0.000000 -1.000000
v -0.118683 0.000000 -1.000000
v -0.166008 0.000000 -1.000000
vn 0.0000 -1.0000 0.0000
usemtl material
s off
f 72//10 71//10 66//10 67//10
f 66//10 71//10 70//10 65//10
f 65//10 70//10 69//10 64//10
f 64//10 69//10 68//10 63//10
o SketchUp.006_ID69
v -0.064408 1.453201 -0.293773
v -0.166008 1.453201 -0.598573
v -0.166008 1.453201 -0.293773
v -0.064408 1.453201 -0.598573
v -0.035833 1.453201 -0.242973
v -0.064408 1.453201 -0.242973
v -0.064408 1.453201 -0.646198
v -0.035833 1.453201 -0.646198
v -0.064408 1.453201 -0.646198
v -0.035833 1.387281 -0.646198
v -0.064408 1.387281 -0.646198
v -0.035833 1.453201 -0.646198
v -0.035833 1.453201 -0.242973
v -0.064408 1.387281 -0.242973
v -0.035833 1.387281 -0.242973
v -0.064408 1.453201 -0.242973
v -0.035833 1.387281 -0.646198
v -0.035833 1.453201 -0.242973
v -0.035833 1.387281 -0.242973
v -0.035833 1.453201 -0.646198
v -0.035833 1.387281 -0.646198
v -0.064408 1.387281 -0.242973
v -0.064408 1.387281 -0.646198
v -0.035833 1.387281 -0.242973
vt 6.7448 8.2691
vt 6.6337 8.6024
vt 6.6337 8.2691
vt 6.7448 8.6024
vt 6.7760 8.2135
vt 6.7448 8.2135
vt 6.7448 8.6545
vt 6.7760 8.6545
vt -6.7448 1.5892
vt -6.7760 1.5171
vt -6.7448 1.5171
vt -6.7760 1.5892
vt 6.7760 1.5892
vt 6.7448 1.5171
vt 6.7760 1.5171
vt 6.7448 1.5892
vt 8.6545 1.5171
vt 8.2135 1.5892
vt 8.2135 1.5171
vt 8.6545 1.5892
vt -6.7760 8.6545
vt -6.7448 8.2135
vt -6.7448 8.6545
vt -6.7760 8.2135
vn 0.0000 1.0000 0.0000
vn 0.0000 0.0000 -1.0000
vn 0.0000 0.0000 1.0000
vn 1.0000 0.0000 0.0000
vn 0.0000 -1.0000 0.0000
usemtl Polished_Concrete_Old
s off
f 73/41/11 74/42/11 75/43/11
f 74/42/11 73/41/11 76/44/11
f 77/45/11 73/41/11 78/46/11
f 73/41/11 77/45/11 76/44/11
f 76/44/11 77/45/11 79/47/11
f 79/47/11 77/45/11 80/48/11
f 81/49/12 82/50/12 83/51/12
f 82/50/12 81/49/12 84/52/12
f 85/53/13 86/54/13 87/55/13
f 86/54/13 85/53/13 88/56/13
f 89/57/14 90/58/14 91/59/14
f 90/58/14 89/57/14 92/60/14
f 93/61/15 94/62/15 95/63/15
f 94/62/15 93/61/15 96/64/15
o SketchUp.004_ID43
v -0.064408 1.453201 -0.646198
v -0.064408 2.062800 -0.598573
v -0.064408 1.453201 -0.598573
v -0.064408 1.387281 -0.242973
v -0.064408 1.387281 -0.646198
v -0.064408 2.062800 -0.293773
v -0.064408 1.453201 -0.242973
v -0.064408 1.453201 -0.293773
v -0.064408 1.544833 -0.000000
v -0.064408 1.204440 -0.000000
v -0.064408 2.194414 -0.000000
v -0.064408 0.609600 -0.000000
v -0.064408 2.437275 -0.000000
v -0.064408 1.595254 -0.000000
v -0.064408 2.294836 -0.000000
v -0.064408 2.061337 -0.000000
v -0.064408 2.403800 -0.000000
v -0.064408 3.048000 -0.000001
v -0.064408 1.585084 -1.000000
v -0.064408 1.322970 -1.000000
v -0.064408 2.367748 -1.000000
v -0.064408 2.154222 -1.000000
v -0.064408 0.609600 -1.000000
v -0.064408 2.561292 -1.000000
v -0.064408 1.383438 -1.000000
v -0.064408 1.261527 -1.000000
v -0.064408 2.213051 -1.000000
v -0.064408 2.534614 -1.000000
v -0.064408 3.048000 -1.000000
v -0.064408 2.447777 -1.000000
vt 17.3090 2.1190
vt 17.2048 3.0079
vt 17.2048 2.1190
vt 15.8956 1.7563
vt 16.4270 2.0229
vt 15.8956 2.2526
vt 16.5381 3.0079
vt 16.4270 2.1190
vt 16.5381 2.1190
vt 18.0828 3.2270
vt 18.0828 3.1412
vt 18.0828 2.3113
vt 18.0828 2.0173
vt 18.0828 3.6959
vt 15.8956 3.5051
vt 15.8956 3.3462
vt 18.0828 3.5692
vt 15.8956 3.0057
vt 15.8956 2.3261
vt 18.0828 3.7348
vt 15.8956 3.5539
vt 15.8956 3.1998
vt 18.0828 3.4525
vt 15.8956 4.4444
vt 18.0828 4.4444
vt 15.8956 0.8889
vt 18.0828 0.8889
vt 18.0828 1.8395
vt 18.0828 1.9291
vt 17.3090 2.0229
vn 1.0000 0.0000 0.0000
usemtl Cladding_Stucco_White
s off
f 97/65/16 98/66/16 99/67/16
f 106/68/16 100/69/16 105/70/16
f 102/71/16 103/72/16 104/73/16
f 123/74/16 102/71/16 98/66/16 118/75/16
f 118/75/16 98/66/16 97/65/16 115/76/16
f 115/76/16 97/65/16 121/77/16
f 124/78/16 113/79/16 111/80/16 126/81/16
f 102/71/16 112/82/16 110/83/16 103/72/16
f 120/84/16 109/85/16 113/79/16 124/78/16
f 126/81/16 111/80/16 107/86/16 117/87/16
f 117/87/16 107/86/16 112/82/16 102/71/16 123/74/16
f 103/72/16 110/83/16 105/70/16 100/69/16
f 114/88/16 109/85/16 120/84/16 125/89/16
f 100/69/16 106/68/16 108/90/16 119/91/16 122/92/16
f 100/69/16 122/92/16 116/93/16 101/94/16
f 101/94/16 116/93/16 121/77/16 97/65/16
o SketchUp.003_ID30
v -0.166008 0.000000 -0.000000
v -0.166008 0.000000 -0.000000
v -0.166008 0.000000 -0.000001
v -0.197236 0.000000 -0.000000
v -0.166008 0.000000 -0.000000
v -0.197236 0.000000 -0.000000
v -0.166008 0.000000 -1.000000
v -0.166008 0.000000 -1.000000
v -0.166008 0.000000 -1.000000
v -0.190768 0.000000 -1.000000
v -0.166008 0.000000 -1.000000
v -0.190768 0.000000 -1.000000
v -0.250000 0.000000 -0.000000
v -0.250000 0.000000 -0.000000
v -0.250000 0.000000 -1.000000
v -0.250000 0.000000 -1.000000
vt 0.0000 0.0000
vt 0.0000 0.0000
vt 0.0000 0.0000
vt 0.0000 0.0000
vt 0.0000 0.0000
vt 0.0000 0.0000
vt 0.0000 0.0000
vt 0.0000 0.0000
vt -6.2333 7.4681
vt -6.2333 8.4957
vt -6.2078 8.4957
vt -6.2012 7.4681
vt -6.2333 7.4681
vt -6.2333 8.4957
vt -6.1470 8.4957
vt -6.1470 7.4681
vn 0.0000 -1.0000 0.0000
vn 0.0000 0.0000 1.0000
vn 0.0000 1.0000 0.0000
usemtl material
s off
f 139/95/17 141/96/17 138/97/17 132/98/17
f 132/98/17 138/97/17 137/99/17 131/100/17
f 131/100/18 137/99/18 135/101/18 127/102/18
usemtl Modern_Siding
f 129/103/19 134/104/19 136/105/19 130/106/19
f 128/107/18 133/108/18 134/104/18 129/103/18
f 130/106/19 136/105/19 142/109/19 140/110/19
o SketchUp_ID3
v -0.013608 0.000000 -0.000000
v -0.013608 0.609600 -0.000000
v -0.013608 0.526026 -0.000000
v -0.064408 0.609600 -0.000000
v -0.013608 0.609600 -0.000000
v -0.020634 0.609600 -0.000000
v -0.013608 0.609600 -1.000000
v -0.013608 0.609600 -1.000000
v -0.029523 0.609600 -1.000000
v -0.013608 0.000000 -1.000000
v -0.013608 0.420300 -1.000000
v -0.064408 0.609600 -1.000000
vt 2.9144 3.8749
vt 2.9070 3.8749
vt 2.9111 3.4062
vt 2.9144 3.4062
vt 3.8749 0.1970
vt 3.4062 0.2465
vt 3.4062 0.0000
vt 3.8749 0.0000
vt 2.8906 3.8749
vt 2.8906 3.4062
vt 3.8749 0.2857
vt 3.4062 0.2857
vn 0.0000 1.0000 0.0000
vn 1.0000 0.0000 0.0000
usemtl Stone_Coursed_Rough
s off
f 150/111/20 151/112/20 148/113/20 147/114/20
f 153/115/21 145/116/21 143/117/21 152/118/21
f 148/113/20 151/112/20 154/119/20 146/120/20
f 145/116/21 153/115/21 149/121/21 144/122/21
